<svg xmlns="http://www.w3.org/2000/svg" xmlns:xlink="http://www.w3.org/1999/xlink" version="1.1" x="0px" y="0px" viewBox="0 0 59.3049011 125" style="enable-background:new 0 0 59.3049011 100;" xml:space="preserve"><g><path d="M49.923233,61.7062378c-0.9628906,0-2.5040894,0.1544189-3.1994019,0.7999878c0-3.2000122-2.7918091-4.0198975-3.9993286-4   c-1.3853149,0.0231934-2.3997192,0.7999878-3.1994019,2.4000244c0-3.2000122-2.6091919-4-3.9992676-4   c-1.5302734,0-3.3042603,0.954895-3.9992676,2.3999634V42.5061646c0-2.6591797-2.1404419-4.8000488-4.7991333-4.8000488   s-4.7991333,2.1408691-4.7991333,4.8000488v28.8000488l-3.1994019-6.4000244   c-2.6216431-4.864624-5.1985464-4.3589478-7.1986685-3.1999512c-2.3151245,1.5441284-3.1774902,3.1384277-1.5997314,7.1999512   c3.6317749,8.918396,9.2061758,19.5435791,15.1972647,26.4000244h21.5960693   C54.3147125,89.6817627,60.4221954,62.9354858,49.923233,61.7062378z"/><path d="M20.678299,60.4633179V58.914978c-4.4959717-1.4105225-8.3326406-4.3237305-10.9146719-8.152771l2.4344482-1.4053955   c2.0615234,2.9877319,5.0247793,5.2896118,8.4802237,6.5706787V45.3676758   c-1.0910645-1.354187-1.7471924-3.0737305-1.7471924-4.9482422c0-4.3610229,3.5352783-7.8964844,7.8964844-7.8964844   c4.3613281,0,7.8964233,3.5354614,7.8964233,7.8964844c0,1.9852905-0.737915,3.7944946-1.9474487,5.1819458V56.003479   c3.5421753-1.2644653,6.5787964-3.6010742,8.6804199-6.6466675l2.43396,1.4053955   c-1.4909058,2.2110596-3.4014893,4.1149902-5.6143188,5.6026001c0.4485474,0.2509155,0.8581543,0.572998,1.2142944,0.9644165   c4.7941895-3.3728027,8.1898804-8.5992432,9.1230469-14.6452637l1.8453979-1.6806641V27.557251l-4.5114136-1.6807251   c-1.1622314-2.0188599-2.6375732-3.8325806-4.3555908-5.3831787c-0.0107422-0.0095825-0.0211792-0.019165-0.0318604-0.0286865   c-0.4721069-0.4244995-0.9639282-0.8268433-1.4711304-1.210083c1.6047363-1.8136597,2.5401001-3.9754639,2.5401001-6.2987061   c0-2.0877075-0.7539673-4.0455933-2.0718384-5.7371216c0.590271-0.5928345,0.5897827-1.5513916-0.0015259-2.1431885   c-0.5925293-0.5921631-1.2315674-0.4185181-2.1452026,0c-2.772583,1.1566772-6.9315186,1.8926392-11.5835571,1.8926392   c-4.6520996,0-8.8113403-0.7359619-11.5836172-1.892395c-0.8131104-0.3244019-1.5526733-0.5922852-2.1448975,0   c-0.5916138,0.5917969-0.592041,1.550415-0.0018311,2.1430664c-1.3178711,1.6914062-2.0717773,3.649292-2.0717773,5.7369995   c0,2.3232422,0.9351196,4.4850464,2.539978,6.2989502c-0.5076904,0.3831787-0.9998169,0.7860107-1.4724121,1.2109375   c-0.0098267,0.008667-0.0195923,0.0175781-0.0293579,0.0264282c-1.7184448,1.5508423-3.194519,3.3652954-4.3569341,5.3843384   L3.1953282,27.557251v13.4460449L5.040482,42.68396C6.3557897,51.2035522,12.5509195,58.105957,20.678299,60.4633179z    M47.3941803,39.2927856c0,3.2439575-0.7570801,6.3130493-2.1010132,9.0445557l-2.4301147-1.4030762   c1.1079712-2.3161621,1.7297974-4.9074707,1.7297974-7.6414795c0-2.7337036-0.6213989-5.3248291-1.7293091-7.640686   l2.4302979-1.4031982C46.6371002,32.9802246,47.3941803,36.0493164,47.3941803,39.2927856z M43.8916779,27.8240356   l-2.4346924,1.4054565c-2.9578857-4.286499-7.7471924-7.2119141-13.2288818-7.6418457v-2.8085327   C34.744339,19.2199097,40.4393463,22.7039795,43.8916779,27.8240356z M22.2751617,12.0802612h9.1043701   c3.3424072,0,6.1013184,2.4919434,6.5245972,5.71875c-0.0006104-0.0006714-0.0015259-0.0009155-0.0024414-0.0015259   c-0.053833-0.0314941-0.1081543-0.0627441-0.1621704-0.09375c-0.0498657-0.0285034-0.1011963-0.0540161-0.1513672-0.0820923   c-0.1851196-0.1036987-0.3717651-0.204895-0.5600586-0.3036499c-0.0469971-0.024353-0.0922852-0.0512695-0.1394043-0.0753784   c-0.0452271-0.0235596-0.0899048-0.0476685-0.135376-0.0707397c-0.0231934-0.0115967-0.0474243-0.0218506-0.0709229-0.0334473   c-0.2667236-0.133606-0.5374756-0.2608643-0.8100586-0.3839111c-0.0926514-0.041748-0.1854248-0.0820923-0.2783813-0.1224976   c-0.2776489-0.1207275-0.5578613-0.2377319-0.8412476-0.3474121c-0.0147705-0.0053711-0.0289307-0.012207-0.0435791-0.0177002   c-0.0709839-0.0274048-0.1428833-0.0524292-0.2146606-0.0789795c-0.0150146-0.0056152-0.0300903-0.0101318-0.045166-0.015625   c-0.2434692-0.0900269-0.4887695-0.1755371-0.736084-0.256958c-0.0127563-0.0043335-0.0250854-0.0093384-0.0380859-0.0134277   c-0.0269165-0.0088501-0.0542603-0.0171509-0.081604-0.0259399c-0.3907471-0.1263428-0.7860107-0.2416992-1.1858521-0.3463135   c-0.0355835-0.0098267-0.0708618-0.0198364-0.1067505-0.0292358c-0.0430298-0.0108643-0.0866089-0.020752-0.1294556-0.0316162   c-0.1080322-0.0269775-0.2159424-0.0541382-0.3244019-0.0793457c-0.2092285-0.0497437-0.4194946-0.097168-0.6312866-0.1397705   v-1.5385132H22.438797v1.5385132c-0.2111206,0.0426025-0.4199219,0.0897827-0.6282959,0.1390381   c-0.1101074,0.0258179-0.2194824,0.0531006-0.3289185,0.0807495c-0.0426025,0.010437-0.0855103,0.0202637-0.1278687,0.0309448   c-0.0349121,0.0089722-0.0693359,0.0189209-0.104187,0.0285034c-0.3987427,0.104187-0.793335,0.2195435-1.1831665,0.3453369   c-0.0289307,0.0091553-0.0579224,0.0180054-0.0866089,0.0276489c-0.0131836,0.0042725-0.0262451,0.0093994-0.0394287,0.0136719   c-0.2480469,0.0818481-0.4946899,0.1678467-0.7388916,0.2580566c-0.013916,0.0050049-0.0280151,0.0093384-0.0419312,0.0145874   c-0.071106,0.0264893-0.1429443,0.0512695-0.2138062,0.0784302c-0.0143433,0.0054321-0.0282593,0.012085-0.0426636,0.0175781   c-0.2849731,0.1100464-0.56604,0.227478-0.8450317,0.3488159c-0.0911865,0.0396729-0.1824341,0.0795288-0.2730713,0.1203003   c-0.2736816,0.1235962-0.5448608,0.2506714-0.8125,0.3848267c-0.0234985,0.0118408-0.0478516,0.0220947-0.0715942,0.0339355   c-0.0448608,0.0228271-0.0891113,0.0467529-0.1339111,0.0699463c-0.0459595,0.0234985-0.09021,0.0499878-0.1359863,0.0737305   c-0.1915283,0.1002197-0.3811646,0.203064-0.5692749,0.3085938c-0.0487061,0.0274048-0.098937,0.0522461-0.14746,0.0800171   c-0.0536499,0.0306396-0.1071777,0.0613403-0.1605225,0.0923462c-0.0011597,0.0007324-0.0019531,0.0013428-0.0031128,0.0020752   C16.1743927,14.5719604,18.9329376,12.0802612,22.2751617,12.0802612z M25.4267731,18.7791138v2.8085327   c-5.4824219,0.4299316-10.2712393,3.3553467-13.229064,7.6418457l-2.4342651-1.4054565   C13.2157755,22.7039795,18.9105988,19.2199097,25.4267731,18.7791138z M6.2605138,39.2927856   c0-3.2434692,0.7572632-6.312561,2.1005254-9.0438843l2.430481,1.4031982   c-1.1078491,2.3158569-1.7297974,4.9069824-1.7297974,7.640686c0,2.7340088,0.6219482,5.3253174,1.7300415,7.6412354   l-2.4303589,1.4033203C7.0180821,45.605835,6.2605138,42.5367432,6.2605138,39.2927856z"/></g><text x="0" y="115" fill="#000000" font-size="5px" font-weight="bold" font-family="'Helvetica Neue', Helvetica, Arial-Unicode, Arial, Sans-serif">Created by Vrijlansier</text><text x="0" y="120" fill="#000000" font-size="5px" font-weight="bold" font-family="'Helvetica Neue', Helvetica, Arial-Unicode, Arial, Sans-serif">from the Noun Project</text></svg>