<?xml version="1.0" encoding="utf-8"?>
<!-- Generator: Adobe Illustrator 23.0.3, SVG Export Plug-In . SVG Version: 6.00 Build 0)  -->
<svg version="1.1" id="Layer_1" xmlns="http://www.w3.org/2000/svg" xmlns:xlink="http://www.w3.org/1999/xlink" x="0px"
     y="0px"
     viewBox="0 0 211.65 211.5" style="enable-background:new 0 0 211.65 211.5;" xml:space="preserve">
<style type="text/css">
	.st0{fill:#666666;}
	.st1{opacity:0.9;fill:#FFFFFF;}
	.st2{fill:#E30613;}
	.st3{opacity:0.21;fill:#FFFFFF;}
	.st4{fill:#FF5722;}
</style>
    <defs>
        <linearGradient id="grad1" x1="0%" y1="0%" x2="100%" y2="300%">
        <stop offset="15%" style="stop-color:#363640; stop-opacity:1" />
        <stop offset="85%" style="stop-color:#FFFFFF; stop-opacity:1" />
        </linearGradient>
    </defs>
    <circle cx="104.9" cy="106.5" r="96" fill="url(#grad1)"/>
    <path class="st1" d="M8.9,121.55C18.58,152.54,102.4,90,102.4,90s-74.89,60.67-88.89,46"/>
    <path class="st1" d="M17.81,146.93c11,22.5,84.59-36.18,84.59-36.18s-71.73,60.99-79.5,47.5"/>
    <path class="st1" d="M30.18,166.77C41.4,180.75,101.4,133,101.4,133c-22.64,17.57-55.75,50.5-64.25,42.75"/>
    <path class="st1" d="M41.56,180.5c14.15,9.44,59.84-28.17,59.84-28.17C78.76,169.9,58.24,190.5,50.24,187.5"/>
    <path class="st2" d="M123.9,50.17"/>
    <path class="st3"
          d="M156.01,24.78c-18.77-10.78,7.47,3.07,13.18,8.89c5.72,5.82-17.4,20.66-17.4,20.66S174.77,35.57,156.01,24.78z"
    />
    <path class="st3"
          d="M170.77,36.66C151.7,22.03,176.8,40,182.2,46.42c5.4,6.42-30.42,27.92-30.42,27.92S189.84,51.29,170.77,36.66z"
    />
    <path class="st3"
          d="M184.49,52.8c-9.53-11.34,2.54,0.28,6.15,7.95c3.62,7.67-38.86,34.58-38.86,34.58S194.02,64.14,184.49,52.8z"/>
    <path class="st3"
          d="M193.44,69.34c-2.8-8.58,1.08,0.79,3.21,7.04s-44.87,37.96-44.87,37.96S196.24,77.92,193.44,69.34z"/>
    <path class="st4" d="M159.72,27.68L207.24,1.5L168.2,34.32C164.09,30.43,159.72,27.68,159.72,27.68z"/>
    <path class="st4" d="M174.89,41.32l32.34-17.82l-27.38,23.02C176.57,42.75,174.89,41.32,174.89,41.32z"/>
    <path class="st4" d="M186.46,55.83l20.57-11.33l-18.22,15.32C187.57,57.83,186.46,55.83,186.46,55.83z"/>
    <path class="st4" d="M194.64,72.33l12.39-6.83l-11.39,9.58C195.15,73.75,194.64,72.33,194.64,72.33z"/>
</svg>
