<svg version="1.1" id="app-about-svg" xmlns="http://www.w3.org/2000/svg" xmlns:xlink="http://www.w3.org/1999/xlink" x="0px"
     y="0px"
     width="100px" height="100px" viewBox="0 0 100 100"
     style="enable-background:new 0 0 498.941 498.941;"
     xml:space="preserve">
    <g>
        <path
            d="M34.746727,28.9072666c0.0042725,0.0660706-0.0001526,0.1339722,0.009613,0.1985168   c0.007782,0.0502014,0.0256348,0.096817,0.0367737,0.1459503c0.0227356,0.1011658,0.0450134,0.2026367,0.0810242,0.2983856   c0.0210571,0.0559998,0.0512695,0.1069641,0.0765991,0.1608276c0.0390625,0.0827789,0.0765991,0.1662445,0.1251221,0.2431488   c0.0335693,0.0533295,0.0744629,0.1007843,0.1121521,0.1509094c0.0518799,0.0689697,0.103302,0.1382446,0.1625061,0.2004242   c0.0448608,0.0467682,0.0949097,0.0873566,0.1434326,0.1300049c0.062561,0.0551605,0.1257324,0.1100159,0.194397,0.157547   c0.0540161,0.037384,0.1119995,0.068512,0.1693726,0.1007843c0.0715637,0.0403595,0.144043,0.0791168,0.2201843,0.1108551   c0.0619507,0.0257874,0.1266479,0.0454712,0.1913452,0.065155c0.0785828,0.02388,0.1582336,0.0447083,0.2403259,0.0589752   c0.0682068,0.0118256,0.1377869,0.0182343,0.2078247,0.0230408c0.1205444,0.0082397,0.2412415,0.0162506,0.3663635,0.0022125   c1.0246277-0.1147461,1.9450378-0.455246,2.8024292-0.9311676c0.188446-0.1082611,0.3733826-0.2169037,0.5583191-0.32547   c1.4756775-0.9625244,2.7468872-2.3649597,3.9578247-3.8938141c-0.1628113-0.3473663-0.3401184-0.6908417-0.5500793-1.0295105   c-0.809021-1.3040924-1.9169617-2.2605896-3.3448792-2.8962708c-1.2251282,1.162796-2.3471069,2.6303864-3.5154724,4.1804504   c-0.402832,0.5342865-0.8058167,1.0688019-1.214447,1.5913391C35.4439011,28.0761967,35.0987473,28.4951267,34.746727,28.9072666z" />
        <path
            d="M35.5624619,20.9338627c-0.5076599,0.117569-1.0340881,0.2427673-1.5939331,0.3806305   c-0.9179688,0.226059-1.6873169,0.5709839-2.2863789,1.0250854c-1.6290283,1.2348938-3.0201721,3.0804443-4.4929504,5.0344086   c-0.402832,0.5342865-0.8058167,1.0688019-1.214447,1.5913391c-0.3335571,0.4265594-0.6788635,0.8454895-1.0307312,1.2576294   c0.0042725,0.065918-0.0003052,0.1338196,0.0097656,0.198288c0.0079346,0.051651,0.0262451,0.0994873,0.0376892,0.1500702   c0.022583,0.0997162,0.0444031,0.1998138,0.0798035,0.2941895c0.0215149,0.056839,0.0520325,0.1086426,0.0778198,0.1631927   c0.0386047,0.0819397,0.0759888,0.1646423,0.1239014,0.2407837c0.0338745,0.0538635,0.0750732,0.1018524,0.1132202,0.1524353   c0.0515747,0.0684357,0.1025391,0.1372528,0.161438,0.1990509c0.0450134,0.0470734,0.09552,0.0879669,0.1443481,0.1308441   c0.062561,0.0549316,0.1251221,0.1094818,0.1934814,0.1567841c0.0543213,0.0376129,0.1123047,0.0688171,0.1699829,0.1011677   c0.0714111,0.0402069,0.1437378,0.0788879,0.2197266,0.1105499c0.0619507,0.0258636,0.1268005,0.0455475,0.1916504,0.0653076   c0.0785828,0.0238037,0.1580811,0.044632,0.2401733,0.0588989c0.0680542,0.0118256,0.1376343,0.0182343,0.2078247,0.0230408   c0.1205444,0.0082397,0.241394,0.0162506,0.3663635,0.0022125c3.1729126-0.3553791,5.4188557-2.7140827,7.5115986-5.3902454   c1.4518738-1.8566895,2.8315735-3.8633728,4.3928528-5.4667664c-0.4351807-0.1210022-0.8856201-0.227356-1.3697815-0.3023529   C37.122673,21.0030613,36.3597336,20.9507236,35.5624619,20.9338627z" />
        <path
            d="M24.1659756,22.6302586c-0.9179668,0.2261353-1.687315,0.5710602-2.286375,1.0250854   c-1.6290283,1.2349701-3.0201721,3.0805206-4.4929504,5.0344086c-0.402832,0.5343628-0.8058167,1.0688019-1.214447,1.5914154   c-0.3337097,0.4266357-0.6788635,0.8454895-1.0307312,1.2576294c0.0042725,0.0660706-0.0003052,0.1339722,0.0097656,0.1985168   c0.0076294,0.0502014,0.0256348,0.096817,0.0366211,0.1459503c0.0227356,0.1011658,0.0450134,0.2026386,0.0810242,0.2983875   c0.0210571,0.0559998,0.0512695,0.1069641,0.0765991,0.1608276c0.0389099,0.0827789,0.0767517,0.1662445,0.1249695,0.2431488   c0.0335693,0.0533295,0.0744629,0.1007843,0.1123047,0.1509094c0.0518799,0.0689697,0.103302,0.1382446,0.1626587,0.2004242   c0.0445557,0.0467682,0.0947571,0.0873566,0.1431274,0.1300049c0.0628662,0.0551605,0.1257324,0.1100159,0.194397,0.157547   c0.0541687,0.037384,0.1119995,0.068512,0.1693726,0.1007843c0.0717163,0.0403595,0.144043,0.0791168,0.2203369,0.1108551   c0.0619507,0.0257874,0.1266479,0.0454712,0.1913452,0.065155c0.0787354,0.02388,0.1583862,0.0447083,0.2404785,0.0589752   c0.0680542,0.0118256,0.1376343,0.0182343,0.2078247,0.0230408c0.1203918,0.0082397,0.2410889,0.0162506,0.3662109,0.0022125   c3.1729126-0.3553772,5.4188538-2.7140827,7.5115948-5.3902454c1.9114685-2.4442291,3.6955261-5.1527405,5.9368896-6.8518829   c0.0567627-0.0431061,0.1194763-0.0769043,0.1776123-0.1177979c-0.5438232,0.0753784-1.104126,0.1623535-1.6900635,0.2663422   C27.8862209,21.7631779,26.2184353,22.1248875,24.1659756,22.6302586z" />
        <path
            d="M68.4317245,6.7335005c-0.7289124-0.0073242-1.4611816-0.0687408-2.1827698-0.1722717   c-3.336792-0.4786682-6.5762329-0.7796478-9.7290039-0.9394073c-0.8636475-0.0437164-1.7207336-0.0773621-2.5717163-0.1010132   c-0.267334-0.0074005-0.5297852-0.0071716-0.7957458-0.012207c-0.6761169-0.0127411-1.3525391-0.0255585-2.0170593-0.0201416   c-1.7582703,0.014267-3.4698486,0.0982666-5.1553345,0.2194214C34.0141525,6.56779,23.9233608,10.100276,16.5585556,16.3300571   C12.4180832,19.8339329,5.6709509,26.9186649,5.3254919,32.5799065c-0.0097656,0.1611328-0.0006104,0.3192139,0.0228882,0.4729462   c0.0079346,0.051651,0.0263977,0.0994873,0.0378418,0.1500702c0.022583,0.0997162,0.0444031,0.1998138,0.0799561,0.2941895   c0.0213623,0.056839,0.0518799,0.1086426,0.0776672,0.1631927c0.0386047,0.0819397,0.0759888,0.1646423,0.1239014,0.2407837   c0.0338745,0.0538635,0.0752258,0.1018524,0.1133728,0.1524353c0.0515747,0.0684357,0.1025391,0.1372528,0.161438,0.1990509   c0.0448608,0.0470734,0.0953674,0.0879669,0.1441956,0.1308441c0.0624084,0.0549316,0.1251221,0.1094818,0.1933289,0.1567841   c0.0543213,0.0376129,0.1126099,0.0688171,0.1701355,0.1011658c0.0715637,0.0402069,0.1435852,0.0788879,0.219574,0.1105499   c0.0622559,0.0258636,0.1269531,0.0455475,0.191803,0.0653076c0.0785828,0.0238037,0.1582336,0.044632,0.2400208,0.0588989   c0.0683594,0.0118256,0.1379395,0.0182343,0.2081299,0.0230408c0.1203928,0.0082397,0.2410898,0.0162506,0.3662119,0.0022125   c3.1729126-0.3553772,5.4188538-2.7140808,7.5115967-5.3902454c1.9114685-2.4442291,3.6955261-5.1527405,5.9368896-6.8518829   c0.8071899-0.6118011,1.7593384-1.0005188,2.7426128-1.2426758c1.754303-0.4319763,3.5505676-0.8397675,5.3289795-1.1553955   c0.6843567-0.12146,1.362915-0.2210999,2.0376587-0.3092957c0.1654053-0.0215912,0.3297424-0.0421143,0.4942322-0.0614929   c0.6767292-0.0794983,1.3481159-0.1450348,2.0066853-0.1809692c0.0460815-0.0025177,0.0906372-0.0016022,0.1367188-0.003891   c0.4238892-0.0210571,0.8453369-0.0365448,1.2591553-0.0365448c0.1779175,0,0.3485107,0.0136566,0.524292,0.0177765   c0.1690674,0.0040436,0.3373718,0.0090027,0.5044556,0.0170898c0.6304932,0.0302124,1.2513733,0.0788116,1.8479919,0.1712799   c2.89505,0.4485321,5.3323364,1.7012024,6.907196,4.240036c0.4544067,0.7327271,0.8532715,1.5485382,1.1529541,2.5086212   c-3.1005859,4.7062683-11.6714478,5.9895344-13.7339783,11.5206928c-0.0898743,0.2407837-0.138092,0.4798126-0.1670837,0.7160187   c-0.005188,0.0432587-0.0126648,0.0868225-0.0160217,0.1298523c-0.0175476,0.2248383-0.0099182,0.4456329,0.0215149,0.6600952   c0.0061035,0.0415039,0.015564,0.0818634,0.0231934,0.1229095c0.0419617,0.2194977,0.0999451,0.4343414,0.1873779,0.6361389   c0,0.0003052,0.0003052,0.0006104,0.0004578,0.0009918c0.087738,0.2025604,0.2030945,0.3908539,0.330658,0.5699158   c0.0234985,0.032959,0.0456238,0.0667572,0.0701904,0.0988007c0.1290894,0.1673126,0.2740479,0.3218079,0.4330444,0.4613495   c0.0305176,0.0267792,0.0628662,0.0512695,0.0942993,0.0769043c0.1705933,0.1389313,0.3512573,0.2667236,0.5471802,0.3688812   c0.0004578,0.0002289,0.0010681,0.0004578,0.0015259,0.0006866c0.1950073,0.1015472,0.4037476,0.1761627,0.6175232,0.235672   c0.0398254,0.0110626,0.0791931,0.0236511,0.1194763,0.0331879c0.2093506,0.0493622,0.425415,0.0764465,0.645752,0.0803375   c0.0508118,0.0009155,0.1022339-0.0021362,0.1533508-0.0038147c0.136261-0.0045013,0.2735901-0.0189209,0.4118347-0.0424194   c0.0558472-0.0095367,0.1113892-0.0175476,0.1675415-0.0302887c0.1882935-0.0429535,0.3773499-0.0983429,0.5656433-0.1799774   c1.9187927-0.8316803,3.7701416-1.7305756,5.5955505-2.6556396c3.5681152-1.8083954,6.991272-3.7619019,10.3335571-5.7962799   c4.6226501-2.8134937,9.1157532-5.7566853,13.7016296-8.6077137c1.2081909-0.7511139,2.6075745-1.1431122,4.030304-1.1431122   h3.47229h3.6294556V6.8222303L68.4317245,6.7335005z" />
        <path
            d="M50.3807297,72.0611038c1.2585449-1.942749,2.2148132-4.0773773,2.8147888-6.3284302l3.9225769-2.7910576   l-3.480072-12.9878998l-2.2174072-1.1458588c-1.6238403-3.6859894-4.1862488-6.7551422-7.3175049-8.9987946   c-0.4676819,0.2443695-0.9391785,0.4956055-1.4016724,0.7299805c-0.0350952,0.0177002-0.065918,0.0327301-0.100708,0.050354   c0.7550049,0.4992676,1.481781,1.0421753,2.1670532,1.6379547l-1.987915,1.9876099   c-0.9779358-0.8322144-2.043457-1.5532684-3.1729126-2.1559143c-0.899353,0.4256439-1.7471313,0.8113098-2.5689697,1.1675262   c-0.2383423,0.1033783-0.4949951,0.1856995-0.7862854,0.2521515c-0.0672913,0.0152588-0.1339722,0.0269318-0.2345276,0.0435638   c-0.1947021,0.0331116-0.3881836,0.0531006-0.6108093,0.0605774l-0.1860046,0.0031281   c-0.3079224-0.0054169-0.6141663-0.0436401-0.9115601-0.1137543c-0.04776-0.0112915-0.0949097-0.0244141-0.1667786-0.0453186   c-0.3233337-0.0900269-0.6045532-0.1983643-0.8618164-0.3322601c-0.2520752-0.1314545-0.5001831-0.2976227-0.7791138-0.5244446   c-0.0367737-0.0292969-0.0732422-0.0588989-0.1089478-0.0901794c-0.218811-0.1921082-0.4200764-0.4064941-0.6004353-0.6402588   c-0.0283813-0.0370026-0.0552368-0.0749207-0.096283-0.1341248c-0.1953125-0.2741241-0.3457642-0.5355835-0.4600525-0.7992554   c-0.1147461-0.2648163-0.201416-0.5558777-0.2711487-0.9159851c-0.9745789,0.0157928-1.9554138,0.0842285-2.9399109,0.2670288   l-0.7269287-2.7130127c1.3790894-0.2713013,2.756958-0.3881073,4.1183472-0.3772736   c0.2374268-0.5182648,0.51651-1.0043335,0.8410664-1.4549255c-2.2064228-0.1002502-4.4621296,0.1115417-6.7092915,0.7136536   C14.9002304,39.27882,8.1724777,49.4569664,9.3319931,60.0854759l-1.3475037,2.1011353l3.480072,12.9878197l4.7927856,0.45578   c1.6448975,1.6493225,3.5395813,3.0193329,5.6002808,4.0724182c0.0128174,0.0065613,0.0254822,0.0130463,0.0382996,0.0195312   c0.5659485,0.2878571,1.1450195,0.5492401,1.7341595,0.7880402c-1.0806255,2.1672058-1.4245586,4.4974518-0.8233624,6.7414856   c0.5404644,2.0166016,1.7755108,3.7126923,3.4861736,5.0054932c-0.4167175,0.7253265-0.1683044,1.6511536,0.5561829,2.0697784   c0.7255554,0.4186249,1.2979126,0.0855255,2.0721436-0.5552673c2.37854-1.8348694,6.2054462-3.6221313,10.6988544-4.8261261   c4.4937134-1.204071,8.7016296-1.5697479,11.678772-1.1701965c0.8694458,0.1029205,1.6531372,0.1702118,2.0718384-0.555191   c0.4182434-0.7247162,0.1705933-1.6507721-0.5529785-2.0705414c0.8352661-1.9747162,1.0568237-4.0610504,0.5163574-6.077652   c-0.6011963-2.2440338-2.0639038-4.0901947-4.0835571-5.4269409c0.3910828-0.5014801,0.7623291-1.0180664,1.1087036-1.5507507   C50.366539,72.0833817,50.373558,72.0722427,50.3807297,72.0611038z M46.7497482,44.206646   c2.0045471,2.290802,3.5307312,5.0592041,4.3702698,8.1925964c0.8395386,3.1330109,0.9024048,6.2934875,0.3117371,9.2794037   l-2.7108765-0.7263184c0.4707336-2.5236511,0.4008484-5.1874542-0.3067017-7.828064   c-0.70755-2.6407623-1.9789124-4.9828339-3.6488342-6.9330597L46.7497482,44.206646z M28.9181728,49.0065269   c4.2126484-1.1287689,8.542635,1.3712311,9.6713276,5.5838776c1.1288452,4.2124176-1.3711548,8.5424042-5.5836487,9.6711693   c-4.212801,1.1288452-8.5423298-1.3712273-9.671175-5.5837212C22.205986,54.4652824,24.7055264,50.1353722,28.9181728,49.0065269z    M24.5913906,38.2694511l0.7269287,2.713089c-5.1835613,1.8341064-9.0525799,5.8992004-10.800169,10.80513l-2.7148438-0.7275391   C13.8128891,45.2212029,18.4112778,40.3818779,24.5913906,38.2694511z M15.7574692,71.237587   c-2.0043945-2.2906494-3.5299683-5.0592041-4.3695068-8.1921349c-0.8395386-3.1334686-0.90271-6.293869-0.3115845-9.2801666   l2.7105713,0.7263947c-0.4708862,2.5239563-0.4006958,5.187912,0.3068542,7.8287506   c0.70755,2.6405296,1.978302,4.9825249,3.6479187,6.9327507L15.7574692,71.237587z M17.7394333,73.2168808l1.9880676-1.9876862   c3.9663677,3.3748627,9.3496685,4.9610901,14.7558594,3.9575958l0.7269287,2.7128601   C28.8019009,79.1603317,22.3993149,77.2690048,17.7394333,73.2168808z M42.6941147,82.8293839l-8.7940979,2.3564148   c-3.2286091,0.865097-6.538393-0.8278656-7.7824421-3.8352203c0.0009155,0.0005341,0.0018311,0.0005341,0.0027466,0.0009155   c0.0601196,0.0164795,0.120697,0.0326538,0.1809692,0.0485992c0.055542,0.0145721,0.1116943,0.0259399,0.1673889,0.0400543   c0.2056885,0.0522614,0.4121399,0.1017761,0.6196594,0.1483154c0.0515747,0.0113678,0.1023865,0.0257111,0.1541138,0.03685   c0.0497437,0.0109863,0.0991821,0.0227356,0.1489258,0.0331879c0.0256348,0.005188,0.0515747,0.0089264,0.0772095,0.0140381   c0.2923584,0.0600433,0.586853,0.1128387,0.881958,0.1611328c0.1002502,0.0163269,0.2001953,0.0313568,0.3005981,0.0462341   c0.2993774,0.0448608,0.6002808,0.0852966,0.9024048,0.1178741c0.0157166,0.0013733,0.0311279,0.0043488,0.0466919,0.0058746   c0.0756836,0.0080109,0.1516724,0.0136566,0.2278137,0.0206757c0.0160217,0.0016022,0.0315857,0.0020599,0.04776,0.0034332   c0.2584839,0.0239563,0.5175781,0.0430298,0.7774353,0.0576782c0.0134277,0.0009155,0.0267029,0.0025177,0.0401306,0.0030518   c0.0283813,0.0016785,0.0570679,0.002594,0.0857544,0.0040436c0.4100037,0.0208282,0.8216858,0.0299835,1.2350483,0.0275421   c0.0369263,0.0003052,0.0735474,0.0007629,0.1106262,0.0006104c0.0444031-0.0006104,0.0889587-0.0024414,0.1332092-0.0029755   c0.1113892-0.0019073,0.2224731-0.0036621,0.3338623-0.0073242c0.2149963-0.0061035,0.4302979-0.0147247,0.6460571-0.0283051   l0.3981018,1.4860535l8.4779358-2.2717285l-0.3982544-1.4860535c0.1928711-0.0958252,0.3823853-0.1953888,0.5709839-0.296936   c0.0994873-0.0533295,0.1982117-0.1081085,0.2967834-0.1630402c0.0386047-0.0212097,0.0773621-0.0417328,0.115509-0.0630188   c0.0314331-0.0177002,0.0619507-0.0362396,0.0933838-0.0545502c0.3579712-0.2038574,0.7093811-0.4174042,1.0533142-0.639801   c0.0254822-0.0163269,0.0512695-0.0324249,0.0764465-0.0491333c0.0117493-0.0075531,0.0228882-0.0157928,0.0346375-0.0233459   c0.2183533-0.14328,0.4344177-0.2901459,0.6468201-0.4405212c0.012207-0.0083923,0.0247192-0.0162506,0.0367737-0.0249481   c0.0617981-0.0439453,0.1248169-0.0865173,0.1863098-0.1311493c0.0125122-0.0089264,0.0241089-0.0189209,0.0366211-0.0279236   c0.2468872-0.1800537,0.4878235-0.3662872,0.7260132-0.5556488c0.0778198-0.0618744,0.1556396-0.124054,0.2325439-0.1868439   c0.2323914-0.1902771,0.4614258-0.3833008,0.6852722-0.5820465c0.0196838-0.0174713,0.0404358-0.0337982,0.0602722-0.0513458   c0.0375366-0.0336456,0.0741577-0.0682068,0.1112366-0.1022339c0.0382996-0.0346375,0.0743103-0.0715637,0.1124573-0.1063538   c0.1589966-0.1464844,0.3155518-0.2947998,0.4698181-0.4454803c0.0401306-0.0390625,0.0820923-0.0760651,0.1219177-0.1154327   c0.0436401-0.0434113,0.0875854-0.0869751,0.131073-0.1307678c0.0009155-0.0009918,0.0015259-0.0018311,0.0024414-0.0028229   C47.9422226,78.8436356,45.9225693,81.9643631,42.6941147,82.8293839z M37.9161301,77.1745529l-0.7267761-2.7127838   c5.1841736-1.834259,9.0527344-5.8994293,10.8003235-10.8054314l2.7149963,0.7275352   C48.6952438,70.2230301,44.0962448,75.0622787,37.9161301,77.1745529z" />
    </g>
</svg>